<?xml version="1.0" encoding="UTF-8"?>
<svg width="79px" height="66px" viewBox="0 0 79 66" version="1.1" xmlns="http://www.w3.org/2000/svg" xmlns:xlink="http://www.w3.org/1999/xlink">
    <title>Group 19</title>
    <defs>
        <polygon id="path-1" points="0.0002 0.0175 78.339 0.0175 78.339 17 0.0002 17"></polygon>
    </defs>
    <g id="Page-1" stroke="none" stroke-width="1" fill="none" fill-rule="evenodd">
        <g id="main" transform="translate(-387.000000, -2917.000000)">
            <g id="Group-19" transform="translate(387.000000, 2918.000000)">
                <g id="Group-3" transform="translate(0.000000, 47.387300)">
                    <mask id="mask-2" fill="white">
                        <use xlink:href="#path-1"></use>
                    </mask>
                    <g id="Clip-2"></g>
                    <path d="M78.3392,8.5085 C78.3392,13.1985 60.8022,17.0005 39.1702,17.0005 C17.5372,17.0005 0.0002,13.1985 0.0002,8.5085 C0.0002,3.8195 17.5372,0.0175 39.1702,0.0175 C60.8022,0.0175 78.3392,3.8195 78.3392,8.5085" id="Fill-1" fill="#EBEBEB" mask="url(#mask-2)"></path>
                </g>
                <polygon id="Fill-4" fill="#D3D4D6" points="6.5086 1.0359 18.9226 1.0359 35.0606 25.6649 26.3706 30.6299"></polygon>
                <polygon id="Fill-5" fill="#D3D4D6" points="66.7157 1.0359 57.4047 1.0359 40.6467 26.9059 46.8537 30.6299"></polygon>
                <g id="Group-18" transform="translate(6.000000, 0.387300)">
                    <path d="M50.536,0.6486 L30.736,30.3706 M30.739,30.3926 L40.603,31.7376 L62.204,0.6486" id="Stroke-6" stroke="#000000" stroke-width="2.072" stroke-linecap="round" stroke-linejoin="round"></path>
                    <path d="M11.7875,0.6486 L31.6475,29.5716 M31.6445,29.5936 L21.7835,30.9196 L0.1155,0.6486" id="Stroke-8" stroke="#000000" stroke-width="2.072" stroke-linecap="round" stroke-linejoin="round"></path>
                    <g id="Group-13" transform="translate(12.000000, 19.000000)">
                        <path d="M19.2997,0.3483 C29.9427,0.3483 38.6017,9.0073 38.6017,19.6493 C38.6017,30.2923 29.9427,38.9513 19.2997,38.9513 C8.6567,38.9513 -0.0013,30.2923 -0.0013,19.6493 C-0.0013,9.0073 8.6567,0.3483 19.2997,0.3483" id="Fill-10" fill="#FFFFFF"></path>
                        <path d="M19.2997,0.3483 C29.9427,0.3483 38.6017,9.0073 38.6017,19.6493 C38.6017,30.2923 29.9427,38.9513 19.2997,38.9513 C8.6567,38.9513 -0.0013,30.2923 -0.0013,19.6493 C-0.0013,9.0073 8.6567,0.3483 19.2997,0.3483" id="Stroke-12" stroke="#231F20" stroke-width="2"></path>
                    </g>
                    <path d="M31.2997,51.8132 C24.0417,51.8132 18.1357,45.9082 18.1357,38.6492 C18.1357,31.3912 24.0417,25.4852 31.2997,25.4852 C38.5577,25.4852 44.4637,31.3912 44.4637,38.6492 C44.4637,45.9082 38.5577,51.8132 31.2997,51.8132" id="Fill-14" fill="#FFFFFF"></path>
                    <path d="M31.2997,22.4621 C22.3597,22.4621 15.1127,29.7101 15.1127,38.6491 C15.1127,47.5901 22.3597,54.8371 31.2997,54.8371 C40.2397,54.8371 47.4867,47.5901 47.4867,38.6491 C47.4867,29.7101 40.2397,22.4621 31.2997,22.4621 M31.2997,26.2011 C38.1637,26.2011 43.7477,31.7861 43.7477,38.6491 C43.7477,45.5141 38.1637,51.0981 31.2997,51.0981 C24.4357,51.0981 18.8517,45.5141 18.8517,38.6491 C18.8517,31.7861 24.4357,26.2011 31.2997,26.2011" id="Fill-16" fill="#FBB348"></path>
                </g>
            </g>
        </g>
    </g>
</svg>