<?xml version="1.0" encoding="UTF-8"?>
<svg width="20px" height="16px" viewBox="0 0 20 16" version="1.1" xmlns="http://www.w3.org/2000/svg" xmlns:xlink="http://www.w3.org/1999/xlink">
    <title>icons/arrow</title>
    <g id="Page-1" stroke="none" stroke-width="1" fill="none" fill-rule="evenodd">
        <g id="about-us" transform="translate(-267.000000, -4138.000000)" fill="#FBB348">
            <g id="Group" transform="translate(76.000000, 3559.000000)">
                <g id="icons/arrow" transform="translate(191.000000, 579.000000)">
                    <path d="M16.88472,8.39413556 L16.47178,8.39413556 L2.06384,8.39413556 C1.97084,8.39413556 1.8779,8.39482 1.78612,8.39343556 C1.35328,8.38858222 1.1015,8.15711556 1.11006,7.77466667 C1.1182,7.40792889 1.36544,7.18293333 1.7772,7.18224889 C3.3051,7.17946444 4.83262,7.18084889 6.35974,7.18084889 L16.53226,7.18084889 L16.96916,7.18084889 C16.83804,7.02361333 16.75842,6.92256444 16.67356,6.82868667 C15.31534,5.32798 13.95514,3.82914 12.5965,2.32911778 C12.51572,2.23940889 12.42558,2.15223556 12.3679,2.04655111 C12.22176,1.77509111 12.24368,1.50593333 12.45402,1.28765778 C12.66512,1.06936667 12.90916,1.05155556 13.14912,1.23932667 C13.24212,1.31262444 13.32092,1.40835333 13.4017,1.49852889 C15.12048,3.39164 16.83886,5.28590222 18.55636,7.18016444 C18.99368,7.66227778 18.9957,7.91502444 18.56572,8.38928222 C16.83926,10.2925511 15.11356,12.1956022 13.3871,14.0986533 C13.3136,14.1795733 13.24376,14.2665289 13.16012,14.3324222 C12.92256,14.5164911 12.67652,14.5144067 12.46294,14.2984333 C12.23718,14.0711356 12.2185,13.7908711 12.3793,13.5097044 C12.43978,13.40402 12.53196,13.3207822 12.61274,13.2308244 C13.96446,11.73984 15.31418,10.2481556 16.6699,8.76294222 C16.7572,8.66768 16.88716,8.61958222 16.99716,8.55022 C16.96026,8.49795333 16.92248,8.44593556 16.88472,8.39413556 Z" id="arrow"></path>
                </g>
            </g>
        </g>
    </g>
</svg>