<?xml version="1.0" encoding="UTF-8"?>
<svg width="36px" height="28px" viewBox="0 0 36 28" version="1.1" xmlns="http://www.w3.org/2000/svg" xmlns:xlink="http://www.w3.org/1999/xlink">
    <title>icons/arrow copy</title>
    <g id="Page-1" stroke="none" stroke-width="1" fill="none" fill-rule="evenodd">
        <g id="about-us" transform="translate(-76.000000, -3993.000000)" fill="#181818">
            <g id="Group" transform="translate(76.000000, 3559.000000)">
                <g id="icons/arrow-copy" transform="translate(18.000000, 448.000000) rotate(-180.000000) translate(-18.000000, -448.000000) translate(0.000000, 434.000000)">
                    <path d="M30.392496,15.109444 L29.649204,15.109444 L3.714912,15.109444 C3.547512,15.109444 3.38022,15.110676 3.215016,15.108184 C2.435904,15.099448 1.9827,14.682808 1.998108,13.9944 C2.01276,13.334272 2.457792,12.92928 3.19896,12.928048 C5.94918,12.923036 8.698716,12.925528 11.447532,12.925528 L29.758068,12.925528 L30.544488,12.925528 C30.308472,12.642504 30.165156,12.460616 30.012408,12.291636 C27.567612,9.590364 25.119252,6.892452 22.6737,4.192412 C22.528296,4.030936 22.366044,3.874024 22.26222,3.683792 C21.999168,3.195164 22.038624,2.71068 22.417236,2.317784 C22.797216,1.92486 23.236488,1.8928 23.668416,2.230788 C23.835816,2.362724 23.977656,2.535036 24.12306,2.697352 C27.216864,6.104952 30.309948,9.514624 33.401448,12.924296 C34.188624,13.7921 34.19226,14.247044 33.418296,15.100708 C30.310668,18.526592 27.204408,21.952084 24.09678,25.377576 C23.96448,25.523232 23.838768,25.679752 23.688216,25.79836 C23.260608,26.129684 22.817736,26.125932 22.433292,25.73718 C22.026924,25.328044 21.9933,24.823568 22.28274,24.317468 C22.391604,24.127236 22.557528,23.977408 22.702932,23.815484 C25.136028,21.131712 27.565524,18.44668 30.00582,15.773296 C30.16296,15.601824 30.396888,15.515248 30.594888,15.390396 C30.528468,15.296316 30.460464,15.202684 30.392496,15.109444 Z" id="arrow"></path>
                </g>
            </g>
        </g>
    </g>
</svg>