<svg width="46" height="45" viewBox="0 0 46 45" fill="none" xmlns="http://www.w3.org/2000/svg">
<path d="M23 45C35.4264 45 45.5 34.9264 45.5 22.5C45.5 10.0736 35.4264 0 23 0C10.5736 0 0.5 10.0736 0.5 22.5C0.5 34.9264 10.5736 45 23 45Z" fill="#3B5999"/>
<path d="M29.46 14.11V10.04C29.46 10.04 25.3 10 25.02 10C23.14 10 20.44 12.14 20.44 14.57V18.93H16.54V23.55H20.38V35H24.93V23.49H28.95L29.46 18.98H24.98C24.98 18.98 24.98 16.21 24.98 15.67C24.98 14.87 25.58 14.1 26.48 14.1C27.08 14.08 29.46 14.11 29.46 14.11Z" fill="white"/>
</svg>
