<?xml version="1.0" encoding="UTF-8"?>
<svg width="7px" height="15px" viewBox="0 0 7 15" version="1.1" xmlns="http://www.w3.org/2000/svg" xmlns:xlink="http://www.w3.org/1999/xlink">
    <title>facebook</title>
    <g id="Page-1" stroke="none" stroke-width="1" fill="none" fill-rule="evenodd">
        <g id="main" transform="translate(-1235.000000, -734.000000)" fill="#000000">
            <g id="social-media" transform="translate(0.000000, 661.000000)">
                <g id="Group-4">
                    <path d="M1236.50709,87.998938 L1236.50709,81.045581 L1234.99854,81.045581 L1234.99854,78.593229 L1236.45156,78.593229 C1236.48592,77.844022 1236.47639,77.159347 1236.55529,76.484651 C1236.73734,74.954634 1237.59535,74.123028 1239.13752,74.021895 C1240.05106,73.96112 1240.97126,74.010233 1241.93381,74.010233 L1241.93381,76.391423 C1241.50701,76.391423 1241.05822,76.381019 1240.60951,76.393922 C1239.84718,76.414322 1239.64835,76.613273 1239.62718,77.367869 C1239.61692,77.740815 1239.62498,78.114152 1239.62498,78.579493 L1241.9974,78.579493 C1241.89725,79.434406 1241.80883,80.191926 1241.71455,81.000633 L1239.64111,81.000633 L1239.64111,87.998938 L1236.50709,87.998938 Z" id="facebook"></path>
                </g>
            </g>
        </g>
    </g>
</svg>