<?xml version="1.0" encoding="UTF-8"?>
<svg width="13px" height="13px" viewBox="0 0 13 13" version="1.1" xmlns="http://www.w3.org/2000/svg" xmlns:xlink="http://www.w3.org/1999/xlink">
    <title>Combined shape 275</title>
    <g id="Page-1" stroke="none" stroke-width="1" fill="none" fill-rule="evenodd">
        <g id="main" transform="translate(-1305.000000, -735.000000)" fill="#000000">
            <g id="social-media" transform="translate(0.000000, 661.000000)">
                <g id="Group-4">
                    <path d="M1315.44708,78.26968 C1316.84742,78.52648 1317.79898,79.451744 1317.92102,81.082912 C1318.06652,83.033312 1317.95539,85.004112 1317.95539,86.998624 L1315.22929,86.998624 L1315.22929,86.390944 C1315.22562,84.943344 1315.24899,83.494896 1315.20877,82.048944 C1315.17734,80.913504 1314.49618,80.334544 1313.51613,80.5156 C1312.82325,80.643792 1312.31966,81.27312 1312.31233,82.074752 C1312.29849,83.483664 1312.30794,84.892976 1312.30721,86.30104 L1312.30721,86.981568 L1309.55692,86.981568 L1309.55692,78.449904 L1312.27284,78.449904 C1312.29409,78.786208 1312.31379,79.098368 1312.34157,79.52624 C1313.17115,78.404528 1314.21113,78.044096 1315.44708,78.26968 Z M1307.75461,78.23888 L1307.75461,86.786768 L1305.02924,86.786768 L1305.02924,78.23888 L1307.75461,78.23888 Z M1306.54943,73.9976 C1307.46304,73.990944 1308.12009,74.6032 1308.13174,75.470608 C1308.1442,76.323856 1307.48348,76.948192 1306.56327,76.955264 C1305.63214,76.96192 1305.00505,76.372144 1304.99927,75.486832 C1304.99488,74.601952 1305.61831,74.003856 1306.54943,73.9976 Z" id="Combined-shape-275"></path>
                </g>
            </g>
        </g>
    </g>
</svg>