<?xml version="1.0" encoding="UTF-8"?>
<svg width="17px" height="11px" viewBox="0 0 17 11" version="1.1" xmlns="http://www.w3.org/2000/svg" xmlns:xlink="http://www.w3.org/1999/xlink">
    <title>Combined shape 276 Copy</title>
    <g id="Page-1" stroke="none" stroke-width="1" fill="none" fill-rule="evenodd">
        <g id="ui-kit" transform="translate(-430.000000, -391.000000)" fill="#D93124">
            <path d="M437.12978,397.535884 C437.53908,398.056978 437.93372,398.559354 438.3686,399.113348 C438.98404,398.541462 439.46344,398.095688 439.97362,397.62078 C442.27366,399.06299 444.54812,400.48812 446.95636,401.999 L430.01768,401.999 C432.41272,400.49603 434.69452,399.063816 437.12978,397.535884 Z M446.99804,390.999158 L446.99804,401.299742 C444.90702,399.788456 442.89416,398.332932 440.81486,396.830382 C442.85328,394.907454 444.8624,393.01282 446.99804,390.999158 Z M429.9987,391.02454 C432.10138,393.006996 434.11058,394.900384 436.15478,396.826224 C434.09738,398.31504 432.09404,399.765146 429.9987,401.283096 L429.9987,391.02454 Z M446.44838,391.016224 C443.75444,393.12146 441.14664,395.158012 438.48632,397.2362 C435.8581,395.185074 433.24452,393.14477 430.5176,391.016224 L446.44838,391.016224 Z" id="Combined-shape-276-Copy"></path>
        </g>
    </g>
</svg>