<?xml version="1.0" encoding="UTF-8"?>
<svg width="20px" height="16px" viewBox="0 0 20 16" version="1.1" xmlns="http://www.w3.org/2000/svg" xmlns:xlink="http://www.w3.org/1999/xlink">
    <title>icons/arrow copy 3</title>
    <g id="Page-1" stroke="none" stroke-width="1" fill="none" fill-rule="evenodd">
        <g id="ui-kit" transform="translate(-767.000000, -701.000000)" fill="#FBB348">
            <g id="icons/arrow-copy-3" transform="translate(777.000000, 709.000000) scale(-1, 1) translate(-777.000000, -709.000000) translate(767.000000, 701.000000)">
                <path d="M16.88472,8.633968 L16.47178,8.633968 L2.06384,8.633968 C1.97084,8.633968 1.8779,8.634672 1.78612,8.633248 C1.35328,8.628256 1.1015,8.390176 1.11006,7.9968 C1.1182,7.619584 1.36544,7.38816 1.7772,7.387456 C3.3051,7.384592 4.83262,7.386016 6.35974,7.386016 L16.53226,7.386016 L16.96916,7.386016 C16.83804,7.224288 16.75842,7.120352 16.67356,7.023792 C15.31534,5.480208 13.95514,3.938544 12.5965,2.395664 C12.51572,2.303392 12.42558,2.213728 12.3679,2.105024 C12.22176,1.825808 12.24368,1.54896 12.45402,1.324448 C12.66512,1.09992 12.90916,1.0816 13.14912,1.274736 C13.24212,1.350128 13.32092,1.448592 13.4017,1.541344 C15.12048,3.488544 16.83886,5.436928 18.55636,7.385312 C18.99368,7.8812 18.9957,8.141168 18.56572,8.628976 C16.83926,10.586624 15.11356,12.544048 13.3871,14.501472 C13.3136,14.584704 13.24376,14.674144 13.16012,14.74192 C12.92256,14.931248 12.67652,14.929104 12.46294,14.70696 C12.23718,14.473168 12.2185,14.184896 12.3793,13.895696 C12.43978,13.786992 12.53196,13.701376 12.61274,13.608848 C13.96446,12.075264 15.31418,10.54096 16.6699,9.013312 C16.7572,8.915328 16.88716,8.865856 16.99716,8.794512 C16.96026,8.740752 16.92248,8.687248 16.88472,8.633968 Z" id="arrow"></path>
            </g>
        </g>
    </g>
</svg>