<?xml version="1.0" encoding="UTF-8"?>
<svg width="35px" height="35px" viewBox="0 0 35 35" version="1.1" xmlns="http://www.w3.org/2000/svg" xmlns:xlink="http://www.w3.org/1999/xlink">
    <title>icons/share</title>
    <defs>
        <polygon id="path-1" points="1.43999737e-05 1.21957899e-05 21.3502779 1.21957899e-05 21.3502779 17.0372 1.43999737e-05 17.0372"></polygon>
    </defs>
    <g id="Page-1" stroke="none" stroke-width="1" fill="none" fill-rule="evenodd">
        <g id="ui-kit" transform="translate(-79.000000, -520.000000)">
            <g id="Group-9" transform="translate(79.000000, 520.000000)">
                <g id="icons/share">
                    <g id="Group-3" transform="translate(7.000000, 9.000000)">
                        <mask id="mask-2" fill="white">
                            <use xlink:href="#path-1"></use>
                        </mask>
                        <g id="Clip-2"></g>
                        <path d="M12.81281,10.34842 C11.86951,10.35302 10.97691,10.44462 10.10021,10.65642 C6.66671,11.48572 4.05981,13.46832 2.13121,16.39032 C1.76871,16.93952 1.31871,17.13992 0.75851,16.98812 C0.18641,16.83312 -0.09209,16.39772 0.02721,15.81742 C0.62951,12.88552 1.81811,10.24352 3.93451,8.08132 C5.99731,5.97392 8.49331,4.70892 11.42981,4.34532 C11.80911,4.29832 12.19401,4.28572 12.57661,4.27972 C12.76081,4.27682 12.81861,4.22442 12.81691,4.03662 C12.80811,3.07012 12.80121,2.10312 12.82071,1.13692 C12.82591,0.87922 12.88041,0.60062 12.99351,0.37162 C13.20861,-0.06428 13.62061,-0.11548 13.98091,0.21162 C15.80691,1.86972 17.63151,3.52952 19.45651,5.18862 C19.94361,5.63152 20.43111,6.07382 20.91801,6.51692 C21.49121,7.03862 21.49661,7.88852 20.92071,8.41292 C18.61621,10.51092 16.30971,12.60672 14.00241,14.70162 C13.59591,15.07052 13.16251,14.98852 12.94591,14.48022 C12.85751,14.27292 12.82151,14.02952 12.81871,13.80182 C12.80571,12.75202 12.81291,11.70192 12.81281,10.65192 L12.81281,10.34842 Z" id="Fill-1" fill="#000000" mask="url(#mask-2)"></path>
                    </g>
                </g>
            </g>
        </g>
    </g>
</svg>