<?xml version="1.0" encoding="UTF-8"?>
<svg width="17px" height="11px" viewBox="0 0 17 11" version="1.1" xmlns="http://www.w3.org/2000/svg" xmlns:xlink="http://www.w3.org/1999/xlink">
    <title>Combined shape 276</title>
    <g id="Page-1" stroke="none" stroke-width="1" fill="none" fill-rule="evenodd">
        <g id="main" transform="translate(-1265.000000, -736.000000)" fill="#000000">
            <g id="social-media" transform="translate(0.000000, 661.000000)">
                <g id="Group-4">
                    <path d="M1272.12978,81.535884 C1272.53908,82.056978 1272.93372,82.559354 1273.3686,83.113348 C1273.98404,82.541462 1274.46344,82.095688 1274.97362,81.62078 C1277.27366,83.06299 1279.54812,84.48812 1281.95636,85.999 L1265.01768,85.999 C1267.41272,84.49603 1269.69452,83.063816 1272.12978,81.535884 Z M1281.99804,74.999158 L1281.99804,85.299742 C1279.90702,83.788456 1277.89416,82.332932 1275.81486,80.830382 C1277.85328,78.907454 1279.8624,77.01282 1281.99804,74.999158 Z M1264.9987,75.02454 C1267.10138,77.006996 1269.11058,78.900384 1271.15478,80.826224 C1269.09738,82.31504 1267.09404,83.765146 1264.9987,85.283096 L1264.9987,75.02454 Z M1281.44838,75.016224 C1278.75444,77.12146 1276.14664,79.158012 1273.48632,81.2362 C1270.8581,79.185074 1268.24452,77.14477 1265.5176,75.016224 L1281.44838,75.016224 Z" id="Combined-shape-276"></path>
                </g>
            </g>
        </g>
    </g>
</svg>