<svg width="22" height="22" viewBox="0 0 22 22" fill="none" xmlns="http://www.w3.org/2000/svg">
<path d="M19.8519 11.8284H17.7686" stroke="black" stroke-miterlimit="10" stroke-linecap="round" stroke-linejoin="round"/>
<path d="M18.6887 17.9431H17.7686" stroke="black" stroke-miterlimit="10" stroke-linecap="round" stroke-linejoin="round"/>
<path d="M6.10938 10.3096V19.1597" stroke="black" stroke-miterlimit="10" stroke-linecap="round" stroke-linejoin="round"/>
<path d="M3.66992 11.6177V11.6199" stroke="black" stroke-miterlimit="10" stroke-linecap="round" stroke-linejoin="round"/>
<path fill-rule="evenodd" clip-rule="evenodd" d="M10.4909 2.67188C9.92901 6.22038 9.03413 8.44417 6.10938 10.3097L6.58906 10.2055L6 10.5L6.47761 18.6194L6.10938 19.1598C7.34279 20.2021 10.1734 21 11.7749 21H18.6878C19.5279 21 20.2162 20.3117 20.2162 19.4716C20.2162 18.6302 19.5279 17.9433 18.6878 17.9433H19.8509C20.691 17.9433 21.3793 17.2549 21.3793 16.4134C21.3793 15.746 20.9449 15.1744 20.3451 14.9676C20.3495 14.9407 20.3519 14.9132 20.3519 14.885C20.3519 14.8569 20.3495 14.8294 20.3451 14.8026C20.9449 14.5961 21.3793 14.0251 21.3793 13.3567C21.3793 12.5166 20.691 11.8283 19.8509 11.8283C20.691 11.8283 21.3793 11.1413 21.3793 10.2999C21.3793 9.4598 20.691 8.77148 19.8509 8.77148H13.188L13.1225 8.8676L13.0971 8.79123L13.1881 8.77146L14.0478 5.52641C14.5648 3.57657 13.6531 1.80371 12.6009 1.27834C10.998 0.477622 10.6679 1.54804 10.4909 2.67188Z" fill="black"/>
<path d="M6.10938 10.3097L5.84049 9.88816L6.21555 10.7983L6.10938 10.3097ZM10.4909 2.67188L10.9848 2.75008L10.9848 2.74968L10.4909 2.67188ZM6.58906 10.2055L6.81267 10.6527L6.48289 9.71687L6.58906 10.2055ZM6 10.5L5.77639 10.0528L5.4815 10.2002L5.50086 10.5294L6 10.5ZM6.47761 18.6194L6.8908 18.9009L6.98675 18.7601L6.97675 18.59L6.47761 18.6194ZM6.10938 19.1598L5.69618 18.8782L5.44236 19.2507L5.78664 19.5417L6.10938 19.1598ZM20.3451 14.9676L19.8518 14.8856L19.7825 15.3026L20.1821 15.4403L20.3451 14.9676ZM20.3451 14.8026L20.1823 14.3298L19.7827 14.4674L19.8518 14.8844L20.3451 14.8026ZM13.188 8.77148V8.27148H12.9237L12.7748 8.48993L13.188 8.77148ZM13.1225 8.8676L12.6482 9.02572L12.9674 9.98325L13.5357 9.14916L13.1225 8.8676ZM13.0971 8.79123L12.9909 8.30264L12.4466 8.42092L12.6227 8.94935L13.0971 8.79123ZM13.1881 8.77146L13.2943 9.26005L13.5931 9.19512L13.6714 8.89951L13.1881 8.77146ZM14.0478 5.52641L13.5645 5.39826L13.5645 5.39836L14.0478 5.52641ZM12.6009 1.27834L12.3775 1.72563L12.3775 1.72568L12.6009 1.27834ZM6.37826 10.7313C7.90298 9.75872 8.92184 8.67587 9.62707 7.35779C10.3261 6.05123 10.7009 4.54271 10.9847 2.75008L9.99706 2.59368C9.71902 4.34955 9.36538 5.72717 8.74535 6.88602C8.13148 8.03334 7.24052 8.99516 5.84049 9.88816L6.37826 10.7313ZM6.48289 9.71687L6.0032 9.82111L6.21555 10.7983L6.69524 10.6941L6.48289 9.71687ZM6.36546 9.75825L5.77639 10.0528L6.22361 10.9472L6.81267 10.6527L6.36546 9.75825ZM5.50086 10.5294L5.97847 18.6487L6.97675 18.59L6.49914 10.4706L5.50086 10.5294ZM6.52257 19.4413L6.8908 18.9009L6.06442 18.3378L5.69618 18.8782L6.52257 19.4413ZM11.7749 20.5C11.0406 20.5 9.98476 20.3138 8.95239 19.9933C7.91292 19.6705 6.97257 19.2346 6.43211 18.7779L5.78664 19.5417C6.4796 20.1273 7.57127 20.6115 8.65584 20.9483C9.7475 21.2873 10.9077 21.5 11.7749 21.5V20.5ZM18.6878 20.5H11.7749V21.5H18.6878V20.5ZM19.7162 19.4716C19.7162 20.0356 19.2517 20.5 18.6878 20.5V21.5C19.804 21.5 20.7162 20.5878 20.7162 19.4716H19.7162ZM18.6878 18.4433C19.252 18.4433 19.7162 18.9066 19.7162 19.4716H20.7162C20.7162 18.3537 19.8037 17.4433 18.6878 17.4433V18.4433ZM19.8509 17.4433H18.6878V18.4433H19.8509V17.4433ZM20.8793 16.4134C20.8793 16.9791 20.4146 17.4433 19.8509 17.4433V18.4433C20.9675 18.4433 21.8793 17.5307 21.8793 16.4134H20.8793ZM20.1821 15.4403C20.5879 15.5802 20.8793 15.9674 20.8793 16.4134H21.8793C21.8793 15.5247 21.3018 14.7686 20.508 14.4949L20.1821 15.4403ZM19.8519 14.885L19.8518 14.8856L20.8383 15.0496C20.8472 14.9958 20.8519 14.9408 20.8519 14.885H19.8519ZM19.8518 14.8844L19.8519 14.885H20.8519C20.8519 14.8294 20.8473 14.7745 20.8383 14.7208L19.8518 14.8844ZM20.8793 13.3567C20.8793 13.8038 20.588 14.1902 20.1823 14.3298L20.5078 15.2754C21.3018 15.002 21.8793 14.2465 21.8793 13.3567H20.8793ZM19.8509 12.3283C20.4149 12.3283 20.8793 12.7927 20.8793 13.3567H21.8793C21.8793 12.2404 20.9672 11.3283 19.8509 11.3283V12.3283ZM20.8793 10.2999C20.8793 10.8649 20.4152 11.3283 19.8509 11.3283V12.3283C20.9669 12.3283 21.8793 11.4178 21.8793 10.2999H20.8793ZM19.8509 9.27148C20.4149 9.27148 20.8793 9.73595 20.8793 10.2999H21.8793C21.8793 9.18366 20.9672 8.27148 19.8509 8.27148V9.27148ZM13.188 9.27148H19.8509V8.27148H13.188V9.27148ZM13.5357 9.14916L13.6012 9.05304L12.7748 8.48993L12.7093 8.58605L13.5357 9.14916ZM13.5969 8.70949L13.5714 8.63312L12.6227 8.94935L12.6482 9.02572L13.5969 8.70949ZM13.0819 8.28286L12.9909 8.30264L13.2033 9.27983L13.2943 9.26005L13.0819 8.28286ZM13.5645 5.39836L12.7048 8.6434L13.6714 8.89951L14.5312 5.65446L13.5645 5.39836ZM12.3775 1.72568C12.7653 1.91927 13.1849 2.38079 13.4473 3.05058C13.7054 3.70945 13.7944 4.53142 13.5645 5.39826L14.5311 5.65455C14.8183 4.57156 14.7099 3.53218 14.3784 2.68582C14.0511 1.85038 13.4887 1.16279 12.8243 0.831005L12.3775 1.72568ZM10.9848 2.74968C11.0279 2.47616 11.0768 2.23047 11.1448 2.02366C11.2139 1.81375 11.2908 1.68165 11.3665 1.60523C11.4282 1.54287 11.5018 1.50276 11.6301 1.50013C11.7778 1.49711 12.016 1.54504 12.3775 1.72563L12.8244 0.831047C12.3844 0.611283 11.9802 0.492748 11.6097 0.500343C11.2197 0.508334 10.8992 0.655933 10.6559 0.90157C10.4266 1.13315 10.2876 1.42933 10.1949 1.71117C10.1012 1.99613 10.0424 2.30568 9.99699 2.59408L10.9848 2.74968Z" fill="black"/>
<path d="M5.22983 20.5998H1.87942C1.39617 20.5998 1 20.2036 1 19.7204V9.74929C1 9.26604 1.39617 8.86987 1.87942 8.86987H5.22983C5.71308 8.86987 6.10925 9.26604 6.10925 9.74929V19.7204C6.10925 20.2037 5.71308 20.5998 5.22983 20.5998Z" fill="black" stroke="white" stroke-miterlimit="10" stroke-linecap="round" stroke-linejoin="round"/>
</svg>
