<svg width="46" height="46" viewBox="0 0 46 46" fill="none" xmlns="http://www.w3.org/2000/svg">
<path d="M23 45.5C35.4264 45.5 45.5 35.4264 45.5 23C45.5 10.5736 35.4264 0.5 23 0.5C10.5736 0.5 0.5 10.5736 0.5 23C0.5 35.4264 10.5736 45.5 23 45.5Z" fill="#0B69C7"/>
<path d="M17.9664 14.8201C17.967 15.4281 17.7871 16.0227 17.4497 16.5285C17.1123 17.0343 16.6323 17.4286 16.0707 17.6616C15.5091 17.8945 14.8909 17.9556 14.2945 17.8372C13.6982 17.7187 13.1503 17.4259 12.7204 16.996C12.2904 16.566 11.9977 16.0182 11.8792 15.4218C11.7607 14.8254 11.8218 14.2073 12.0548 13.6457C12.2878 13.084 12.6821 12.6041 13.1879 12.2667C13.6937 11.9292 14.2883 11.7494 14.8963 11.75C15.7103 11.7508 16.4907 12.0745 17.0663 12.6501C17.6419 13.2256 17.9656 14.0061 17.9664 14.8201Z" fill="white"/>
<path d="M16.5118 19.1724H13.2789C12.8587 19.1724 12.5181 19.513 12.5181 19.9332V33.4895C12.5181 33.9097 12.8587 34.2503 13.2789 34.2503H16.5118C16.932 34.2503 17.2727 33.9097 17.2727 33.4895V19.9332C17.2727 19.513 16.932 19.1724 16.5118 19.1724Z" fill="white"/>
<path d="M34.1753 26.988V33.5515C34.1753 33.7368 34.1016 33.9145 33.9706 34.0456C33.8396 34.1766 33.6619 34.2502 33.4766 34.2502H30.0068C29.8215 34.2502 29.6438 34.1766 29.5128 34.0456C29.3818 33.9145 29.3081 33.7368 29.3081 33.5515V27.1923C29.3081 26.242 29.5835 23.0476 26.8272 23.0476C24.6897 23.0476 24.2545 25.2443 24.1628 26.2301V33.5663C24.1589 33.748 24.0844 33.9211 23.9551 34.0488C23.8257 34.1764 23.6517 34.2487 23.47 34.2502H20.1128C20.0209 34.2506 19.9299 34.2328 19.8449 34.1978C19.76 34.1628 19.6828 34.1114 19.6178 34.0464C19.5529 33.9815 19.5014 33.9043 19.4665 33.8193C19.4315 33.7344 19.4137 33.6434 19.4141 33.5515V19.8739C19.4137 19.7819 19.4315 19.6907 19.4664 19.6056C19.5013 19.5205 19.5527 19.4431 19.6177 19.3779C19.6826 19.3127 19.7597 19.261 19.8447 19.2257C19.9297 19.1904 20.0208 19.1722 20.1128 19.1722H23.47C23.5631 19.1707 23.6556 19.1877 23.7421 19.2222C23.8286 19.2568 23.9074 19.3082 23.9738 19.3735C24.0402 19.4388 24.093 19.5167 24.129 19.6026C24.165 19.6885 24.1835 19.7807 24.1835 19.8739V21.0581C24.9769 19.8739 26.1552 18.9502 28.6628 18.9502C34.2078 18.9472 34.1753 24.137 34.1753 26.988Z" fill="white"/>
</svg>
