<?xml version="1.0" encoding="UTF-8"?>
<svg width="14px" height="9px" viewBox="0 0 14 9" version="1.1" xmlns="http://www.w3.org/2000/svg" xmlns:xlink="http://www.w3.org/1999/xlink">
    <title>Shape 712 copy 2</title>
    <g id="Page-1" stroke="none" stroke-width="1" fill="none" fill-rule="evenodd">
        <g id="ui-kit" transform="translate(-70.000000, -814.000000)" fill="#000000">
            <g id="Group" transform="translate(175.500000, 826.000000) rotate(-270.000000) translate(-175.500000, -826.000000) translate(161.000000, 719.000000)">
                <path d="M4.01243867,205.512835 C4.08976867,205.564634 4.14754067,205.591885 4.18934067,205.63311 C6.09395767,207.502872 7.99713367,209.372974 9.89744967,211.248193 C9.98069767,211.329946 10.0486887,211.448861 10.0727347,211.561622 C10.1093317,211.727899 10.0215957,211.866891 9.86748567,211.947301 C9.71462967,212.027711 9.56123467,212.014757 9.42075367,211.910853 C9.37912967,211.880865 9.34557967,211.8427 9.30969767,211.807272 C7.28954767,209.822692 5.27171867,207.838112 3.25299867,205.853532 C2.98908667,205.594605 2.98980167,205.398017 3.25515467,205.13739 C5.27746067,203.148713 7.29833667,201.160733 9.32513067,199.176833 C9.40766367,199.095063 9.52965367,199.030004 9.64376767,199.006153 C9.81474067,198.971048 9.95073367,199.062015 10.0354117,199.211241 C10.1152497,199.35161 10.0931837,199.534241 9.98428367,199.661656 C9.94857767,199.703901 9.90767967,199.741726 9.86748567,199.780554 C7.97739967,201.638399 6.08731367,203.496584 4.19651267,205.354752 C4.15417367,205.395977 4.10591667,205.432782 4.01243867,205.512835 Z" id="Shape-712-copy-2"></path>
            </g>
        </g>
    </g>
</svg>