<svg width="24" height="24" viewBox="0 0 24 24" fill="none" xmlns="http://www.w3.org/2000/svg">
<g clip-path="url(#clip0_757_974)">
<path d="M4.2002 12.0004C4.2002 12.69 4.47412 13.3513 4.96172 13.8389C5.44931 14.3265 6.11063 14.6004 6.8002 14.6004C7.48976 14.6004 8.15108 14.3265 8.63867 13.8389C9.12627 13.3513 9.4002 12.69 9.4002 12.0004C9.4002 11.3108 9.12627 10.6495 8.63867 10.1619C8.15108 9.67432 7.48976 9.40039 6.8002 9.40039C6.11063 9.40039 5.44931 9.67432 4.96172 10.1619C4.47412 10.6495 4.2002 11.3108 4.2002 12.0004Z" stroke="black" stroke-width="1.3" stroke-linecap="round" stroke-linejoin="round"/>
<path d="M14.6001 6.8002C14.6001 7.48976 14.874 8.15108 15.3616 8.63867C15.8492 9.12627 16.5105 9.4002 17.2001 9.4002C17.8897 9.4002 18.551 9.12627 19.0386 8.63867C19.5262 8.15108 19.8001 7.48976 19.8001 6.8002C19.8001 6.11063 19.5262 5.44931 19.0386 4.96172C18.551 4.47412 17.8897 4.2002 17.2001 4.2002C16.5105 4.2002 15.8492 4.47412 15.3616 4.96172C14.874 5.44931 14.6001 6.11063 14.6001 6.8002Z" stroke="black" stroke-width="1.3" stroke-linecap="round" stroke-linejoin="round"/>
<path d="M14.6001 17.2001C14.6001 17.8897 14.874 18.551 15.3616 19.0386C15.8492 19.5262 16.5105 19.8001 17.2001 19.8001C17.8897 19.8001 18.551 19.5262 19.0386 19.0386C19.5262 18.551 19.8001 17.8897 19.8001 17.2001C19.8001 16.5105 19.5262 15.8492 19.0386 15.3616C18.551 14.874 17.8897 14.6001 17.2001 14.6001C16.5105 14.6001 15.8492 14.874 15.3616 15.3616C14.874 15.8492 14.6001 16.5105 14.6001 17.2001Z" stroke="black" stroke-width="1.3" stroke-linecap="round" stroke-linejoin="round"/>
<path d="M9.14014 10.8734L14.8601 7.92676" stroke="black" stroke-width="1.3" stroke-linecap="round" stroke-linejoin="round"/>
<path d="M9.14014 13.1265L14.8601 16.0731" stroke="black" stroke-width="1.3" stroke-linecap="round" stroke-linejoin="round"/>
</g>
<defs>
<clipPath id="clip0_757_974">
<rect width="24" height="24" fill="white"/>
</clipPath>
</defs>
</svg>
