<?xml version="1.0" encoding="UTF-8"?>
<svg width="15px" height="12px" viewBox="0 0 15 12" version="1.1" xmlns="http://www.w3.org/2000/svg" xmlns:xlink="http://www.w3.org/1999/xlink">
    <title>icons/arrow copy 9</title>
    <g id="Page-1" stroke="none" stroke-width="1" fill="none" fill-rule="evenodd">
        <g id="about-mobile" transform="translate(-262.000000, -3608.000000)" fill="#FBB348">
            <g id="icons/arrow-copy-9" transform="translate(262.000000, 3608.000000)">
                <path d="M12.66354,6.29560167 L12.353835,6.29560167 L1.54788,6.29560167 C1.47813,6.29560167 1.408425,6.296115 1.33959,6.29507667 C1.01496,6.29143667 0.826125,6.11783667 0.832545,5.831 C0.83865,5.55594667 1.02408,5.3872 1.3329,5.38668667 C2.478825,5.38459833 3.624465,5.38563667 4.769805,5.38563667 L12.399195,5.38563667 L12.72687,5.38563667 C12.62853,5.26771 12.568815,5.19192333 12.50517,5.121515 C11.486505,3.995985 10.466355,2.871855 9.447375,1.74683833 C9.38679,1.67955667 9.319185,1.61417667 9.275925,1.53491333 C9.16632,1.33131833 9.18276,1.12945 9.340515,0.965743333 C9.49884,0.802025 9.68187,0.788666667 9.86184,0.929495 C9.93159,0.984468333 9.99069,1.056265 10.051275,1.12389667 C11.34036,2.54373 12.629145,3.96442667 13.91727,5.38512333 C14.24526,5.74670833 14.246775,5.93626833 13.92429,6.29196167 C12.629445,7.71941333 11.33517,9.14670167 10.040325,10.57399 C9.9852,10.63468 9.93282,10.6998967 9.87009,10.7493167 C9.69192,10.8873683 9.50739,10.885805 9.347205,10.723825 C9.177885,10.5533517 9.163875,10.3431533 9.284475,10.1322783 C9.329835,10.053015 9.39897,9.99058667 9.459555,9.92311833 C10.473345,8.80488 11.485635,7.68611667 12.502425,6.57220667 C12.5679,6.50076 12.66537,6.46468667 12.74787,6.412665 C12.720195,6.373465 12.69186,6.33445167 12.66354,6.29560167 Z" id="arrow"></path>
            </g>
        </g>
    </g>
</svg>