<?xml version="1.0" encoding="UTF-8"?>
<svg width="10px" height="6px" viewBox="0 0 10 6" version="1.1" xmlns="http://www.w3.org/2000/svg" xmlns:xlink="http://www.w3.org/1999/xlink">
    <title>Shape 712 copy 3</title>
    <g id="Page-1" stroke="none" stroke-width="1" fill="none" fill-rule="evenodd">
        <g id="ui-kit" transform="translate(-436.000000, -705.000000)" fill="#000000">
            <path d="M439.19628,708.00906 C439.25252,708.045624 439.294536,708.06486 439.324936,708.09396 C440.710112,709.413792 442.09424,710.733864 443.476288,712.057548 C443.536832,712.115256 443.58628,712.199196 443.603768,712.278792 C443.630384,712.396164 443.566576,712.494276 443.454496,712.551036 C443.343328,712.607796 443.231768,712.598652 443.1296,712.525308 C443.099328,712.50414 443.074928,712.4772 443.048832,712.452192 C441.579632,711.051312 440.11212,709.650432 438.64396,708.249552 C438.452024,708.06678 438.452544,707.928012 438.645528,707.74404 C440.116296,706.340268 441.586024,704.936988 443.060056,703.536588 C443.12008,703.478868 443.2088,703.432944 443.291792,703.416108 C443.416136,703.391328 443.51504,703.45554 443.576624,703.560876 C443.634688,703.65996 443.61864,703.788876 443.53944,703.878816 C443.513472,703.908636 443.483728,703.935336 443.454496,703.962744 C442.079888,705.274164 440.70528,706.585824 439.330152,707.897472 C439.29936,707.926572 439.264264,707.952552 439.19628,708.00906 Z" id="Shape-712-copy-3" transform="translate(441.000000, 708.000000) rotate(-270.000000) translate(-441.000000, -708.000000) "></path>
        </g>
    </g>
</svg>