<svg width="51" height="50" viewBox="0 0 51 50" fill="none" xmlns="http://www.w3.org/2000/svg">
<path d="M25.5005 28.9506C27.6824 28.9506 29.4511 27.1819 29.4511 25C29.4511 22.8181 27.6824 21.0493 25.5005 21.0493C23.3186 21.0493 21.5498 22.8181 21.5498 25C21.5498 27.1819 23.3186 28.9506 25.5005 28.9506Z" fill="black"/>
<path d="M30.5522 15.0166H20.4469C19.1383 15.0166 17.8832 15.5365 16.9579 16.4618C16.0325 17.3871 15.5127 18.6422 15.5127 19.9508V30.0528C15.5127 31.3614 16.0325 32.6165 16.9579 33.5418C17.8832 34.4671 19.1383 34.987 20.4469 34.987H30.5522C31.8608 34.987 33.1158 34.4671 34.0412 33.5418C34.9665 32.6165 35.4864 31.3614 35.4864 30.0528V19.9475C35.4855 18.6395 34.9653 17.3853 34.04 16.4606C33.1148 15.536 31.8602 15.0166 30.5522 15.0166ZM25.4995 31.4673C24.2203 31.4679 22.9697 31.0892 21.9057 30.379C20.8418 29.6687 20.0124 28.6589 19.5224 27.4773C19.0324 26.2956 18.9038 24.9952 19.153 23.7405C19.4022 22.4858 20.0178 21.3332 20.9222 20.4284C21.8265 19.5236 22.9788 18.9074 24.2334 18.6576C25.488 18.4078 26.7884 18.5356 27.9703 19.025C29.1522 19.5144 30.1625 20.3433 30.8732 21.4069C31.584 22.4705 31.9634 23.7209 31.9634 25.0002C31.9616 26.7142 31.2802 28.3577 30.0684 29.57C28.8567 30.7823 27.2136 31.4646 25.4995 31.4673ZM32.0028 20.1317C31.6864 20.1324 31.3768 20.0391 31.1134 19.8637C30.85 19.6883 30.6446 19.4386 30.5232 19.1464C30.4018 18.8541 30.3698 18.5324 30.4314 18.222C30.493 17.9115 30.6453 17.6264 30.8691 17.4026C31.0929 17.1788 31.378 17.0265 31.6885 16.9649C31.9989 16.9033 32.3206 16.9353 32.6128 17.0567C32.9051 17.1781 33.1547 17.3835 33.3302 17.6469C33.5056 17.9103 33.5989 18.2199 33.5982 18.5363C33.5974 18.9592 33.429 19.3645 33.13 19.6635C32.831 19.9625 32.4257 20.1309 32.0028 20.1317Z" fill="black"/>
<path d="M25.5 0C20.5555 0 15.722 1.46622 11.6108 4.21326C7.49953 6.9603 4.29521 10.8648 2.40302 15.4329C0.510832 20.0011 0.0157487 25.0277 0.980379 29.8773C1.94501 34.7268 4.32603 39.1814 7.82234 42.6777C11.3187 46.174 15.7732 48.555 20.6228 49.5196C25.4723 50.4843 30.4989 49.9892 35.0671 48.097C39.6352 46.2048 43.5397 43.0005 46.2868 38.8893C49.0338 34.778 50.5 29.9445 50.5 25C50.5 18.3696 47.8661 12.0107 43.1777 7.32233C38.4893 2.63392 32.1304 0 25.5 0ZM38 30.0526C37.9983 32.0273 37.2131 33.9205 35.8168 35.3168C34.4205 36.7131 32.5273 37.4983 30.5526 37.5H20.4474C18.473 37.4974 16.5803 36.7119 15.1842 35.3158C13.7881 33.9197 13.0026 32.027 13 30.0526V19.9474C13.0026 17.973 13.7881 16.0803 15.1842 14.6842C16.5803 13.2881 18.473 12.5026 20.4474 12.5H30.5526C32.527 12.5026 34.4198 13.2881 35.8158 14.6842C37.2119 16.0803 37.9974 17.973 38 19.9474V30.0526Z" fill="black"/>
</svg>
