<svg width="51" height="50" viewBox="0 0 51 50" fill="none" xmlns="http://www.w3.org/2000/svg">
<path d="M25.5 0C20.5555 0 15.722 1.46622 11.6108 4.21326C7.49953 6.9603 4.29521 10.8648 2.40302 15.4329C0.510832 20.0011 0.0157487 25.0277 0.980379 29.8773C1.94501 34.7268 4.32603 39.1814 7.82234 42.6777C11.3187 46.174 15.7732 48.555 20.6228 49.5196C25.4723 50.4843 30.4989 49.9892 35.0671 48.097C39.6352 46.2048 43.5397 43.0005 46.2868 38.8893C49.0338 34.778 50.5 29.9445 50.5 25C50.5 18.3696 47.8661 12.0107 43.1777 7.32233C38.4893 2.63392 32.1304 0 25.5 0ZM19.1382 36.6546C19.1382 36.8788 19.0491 37.0938 18.8906 37.2524C18.732 37.4109 18.517 37.5 18.2928 37.5H14.7007C14.5895 37.5004 14.4794 37.4789 14.3766 37.4365C14.2739 37.3942 14.1805 37.332 14.1019 37.2534C14.0233 37.1748 13.9611 37.0814 13.9187 36.9786C13.8764 36.8759 13.8548 36.7658 13.8553 36.6546V21.5921C13.8553 21.3679 13.9443 21.1529 14.1029 20.9943C14.2614 20.8358 14.4765 20.7467 14.7007 20.7467H18.2928C18.517 20.7467 18.732 20.8358 18.8906 20.9943C19.0491 21.1529 19.1382 21.3679 19.1382 21.5921V36.6546ZM16.5066 19.3289C15.8309 19.3316 15.1695 19.1336 14.6064 18.7601C14.0432 18.3867 13.6035 17.8545 13.343 17.231C13.0824 16.6075 13.0127 15.9208 13.1427 15.2577C13.2727 14.5945 13.5966 13.9849 14.0732 13.5059C14.5499 13.027 15.158 12.7002 15.8204 12.567C16.4829 12.4338 17.17 12.5002 17.7948 12.7577C18.4195 13.0153 18.9538 13.4524 19.3299 14.0137C19.7061 14.5751 19.9072 15.2354 19.9079 15.9112C19.9083 16.3596 19.8204 16.8037 19.6493 17.2181C19.4781 17.6325 19.2269 18.0092 18.9102 18.3265C18.5934 18.6439 18.2172 18.8958 17.8031 19.0678C17.389 19.2398 16.9451 19.3285 16.4967 19.3289H16.5066ZM37.9276 36.7237C37.9276 36.9296 37.8459 37.127 37.7003 37.2726C37.5547 37.4182 37.3572 37.5 37.1513 37.5H33.2862C33.0803 37.5 32.8828 37.4182 32.7373 37.2726C32.5917 37.127 32.5099 36.9296 32.5099 36.7237V29.6579C32.5099 28.602 32.8158 25.0526 29.7533 25.0526C27.3783 25.0526 26.8947 27.4934 26.7928 28.5888V36.7401C26.7885 36.942 26.7057 37.1343 26.562 37.2762C26.4183 37.418 26.225 37.4983 26.023 37.5H22.2928C22.1907 37.5004 22.0896 37.4807 21.9952 37.4418C21.9008 37.4029 21.815 37.3458 21.7429 37.2736C21.6707 37.2014 21.6135 37.1157 21.5747 37.0213C21.5358 36.9269 21.516 36.8258 21.5165 36.7237V21.5263C21.516 21.4241 21.5358 21.3228 21.5746 21.2282C21.6134 21.1337 21.6705 21.0477 21.7427 20.9753C21.8148 20.9028 21.9005 20.8453 21.9949 20.8061C22.0893 20.7669 22.1905 20.7467 22.2928 20.7467H26.023C26.1265 20.745 26.2293 20.7638 26.3254 20.8022C26.4215 20.8406 26.509 20.8978 26.5828 20.9703C26.6566 21.0429 26.7152 21.1294 26.7552 21.2249C26.7952 21.3204 26.8158 21.4228 26.8158 21.5263V22.8421C27.6974 21.5263 29.0066 20.4967 31.7928 20.4967C37.9704 20.4967 37.9342 26.2665 37.9342 29.4342L37.9276 36.7237Z" fill="black"/>
</svg>
