<svg width="51" height="50" viewBox="0 0 51 50" fill="none" xmlns="http://www.w3.org/2000/svg">
<path d="M25.5 0C20.5555 0 15.722 1.46622 11.6108 4.21326C7.49953 6.9603 4.29521 10.8648 2.40302 15.4329C0.510832 20.0011 0.0157487 25.0277 0.980379 29.8773C1.94501 34.7268 4.32603 39.1814 7.82234 42.6777C11.3187 46.174 15.7732 48.555 20.6228 49.5196C25.4723 50.4843 30.4989 49.9892 35.0671 48.097C39.6352 46.2048 43.5397 43.0005 46.2868 38.8893C49.0338 34.778 50.5 29.9445 50.5 25C50.5 18.3696 47.8661 12.0107 43.1777 7.32233C38.4893 2.63392 32.1304 0 25.5 0ZM31.8355 22.6316L31.4211 26.1151C31.4032 26.2768 31.326 26.4261 31.2045 26.5342C31.0831 26.6424 30.9258 26.7016 30.7632 26.7007H27.1447V37.0296C27.1456 37.1529 27.0977 37.2716 27.0114 37.3597C26.9252 37.4478 26.8075 37.4983 26.6842 37.5H23C22.9387 37.4991 22.8781 37.4862 22.8218 37.4619C22.7654 37.4377 22.7144 37.4025 22.6716 37.3586C22.6289 37.3146 22.5952 37.2626 22.5725 37.2056C22.5498 37.1486 22.5386 37.0877 22.5395 37.0263L22.5592 26.7007H19.8191C19.6446 26.7007 19.4773 26.6313 19.3539 26.508C19.2305 26.3846 19.1612 26.2172 19.1612 26.0428V22.5625C19.1612 22.388 19.2305 22.2207 19.3539 22.0973C19.4773 21.9739 19.6446 21.9046 19.8191 21.9046H22.5395V18.5296C22.5395 14.625 24.8651 12.5 28.2632 12.5H31.0494C31.2238 12.5 31.3912 12.5693 31.5146 12.6927C31.6379 12.8161 31.7072 12.9834 31.7072 13.1579V16.0888C31.7072 16.2633 31.6379 16.4306 31.5146 16.554C31.3912 16.6774 31.2238 16.7467 31.0494 16.7467H29.3421C27.4934 16.7763 27.1447 17.6612 27.1447 18.9836V21.8947H31.1974C31.2892 21.8968 31.3795 21.9181 31.4626 21.9572C31.5457 21.9963 31.6196 22.0524 31.6797 22.1218C31.7398 22.1912 31.7847 22.2724 31.8116 22.3602C31.8384 22.448 31.8466 22.5404 31.8355 22.6316Z" fill="black"/>
</svg>
