<?xml version="1.0" encoding="UTF-8"?>
<svg width="81px" height="65px" viewBox="0 0 81 65" version="1.1" xmlns="http://www.w3.org/2000/svg" xmlns:xlink="http://www.w3.org/1999/xlink">
    <title>icons/Research and Strategy</title>
    <g id="Page-1" stroke="none" stroke-width="1" fill="none" fill-rule="evenodd">
        <g id="about-us" transform="translate(-677.000000, -919.000000)">
            <g id="what-we-do" transform="translate(208.000000, 927.000000)">
                <g id="icons/Research-and-Strategy" transform="translate(469.000000, 0.000000)">
                    <path d="M79.887951,47.4965 C79.887951,52.19062 62.425161,55.9961 40.883454,55.9961 C19.342395,55.9961 1.878957,52.19062 1.878957,47.4965 C1.878957,42.80278 19.342395,38.99812 40.883454,38.99812 C62.425161,38.99812 79.887951,42.80278 79.887951,47.4965 Z" id="Shape-707-copy-3" fill="#E9E9E9" style="mix-blend-mode: multiply;"></path>
                    <g id="Group-23" transform="translate(12.000000, -8.000000)">
                        <path d="M46.921,48.7473 C43.932,51.7363 39.265,52.7223 33.774,51.5193 C31.991,51.1293 30.192,50.5233 28.413,49.7243 C32.51,48.1643 36.547,45.5033 40.065,41.9993 C40.56,42.2963 41.133,42.4773 41.751,42.4773 C43.571,42.4773 45.052,40.9963 45.052,39.1763 C45.052,38.3523 44.738,37.6073 44.237,37.0283 C45.81,34.7843 47.032,32.4923 47.895,30.2333 C48.695,32.0163 49.303,33.8153 49.693,35.6013 C50.894,41.0883 49.909,45.7583 46.921,48.7473 M12.759,46.8943 C10.048,44.1843 9.227,39.9333 10.29,35.1223 C11.94,37.9383 14.041,40.6533 16.521,43.1323 C19.004,45.6163 21.724,47.7203 24.546,49.3723 C19.833,50.4123 15.536,49.6713 12.759,46.8943 M8.133,25.8803 C6.933,20.3913 7.917,15.7213 10.906,12.7323 C13.064,10.5743 16.097,9.4613 19.685,9.4613 C21.065,9.4613 22.527,9.6263 24.053,9.9603 C25.836,10.3503 27.634,10.9563 29.414,11.7553 C25.296,13.3233 21.238,16.0023 17.707,19.5333 C16.431,20.8103 15.257,22.1753 14.2,23.5943 C13.867,23.4793 13.514,23.4043 13.141,23.4043 C11.321,23.4043 9.84,24.8853 9.84,26.7053 C9.84,27.6433 10.237,28.4863 10.868,29.0883 C10.522,29.8113 10.205,30.5313 9.932,31.2463 C9.131,29.4653 8.524,27.6643 8.133,25.8803 M14.975,26.7053 C14.975,27.7173 14.153,28.5393 13.141,28.5393 C12.129,28.5393 11.307,27.7173 11.307,26.7053 C11.307,25.6933 12.129,24.8713 13.141,24.8713 C14.153,24.8713 14.975,25.6933 14.975,26.7053 M43.062,36.1493 C42.659,35.9743 42.217,35.8753 41.751,35.8753 C39.931,35.8753 38.45,37.3563 38.45,39.1763 C38.45,39.8473 38.653,40.4693 38.998,40.9893 C35.148,44.8163 30.763,47.4823 26.574,48.8243 C23.404,47.1493 20.333,44.8703 17.558,42.0953 C14.787,39.3233 12.509,36.2553 10.834,33.0893 C11.177,32.0203 11.617,30.9313 12.138,29.8333 C12.456,29.9353 12.789,30.0063 13.141,30.0063 C14.961,30.0063 16.442,28.5253 16.442,26.7053 C16.442,25.7883 16.065,24.9583 15.46,24.3603 C16.454,23.0383 17.552,21.7643 18.745,20.5713 C22.616,16.7013 27.035,14.0063 31.254,12.6553 C34.423,14.3303 37.495,16.6103 40.269,19.3843 C43.042,22.1573 45.321,25.2293 46.997,28.3983 C46.179,30.9443 44.861,33.5743 43.062,36.1493 M39.917,39.1763 C39.917,38.1643 40.739,37.3423 41.751,37.3423 C42.763,37.3423 43.585,38.1643 43.585,39.1763 C43.585,40.1873 42.763,41.0103 41.751,41.0103 C40.739,41.0103 39.917,40.1873 39.917,39.1763 M45.068,14.5853 C47.817,17.3343 48.594,21.6153 47.545,26.3713 C45.893,23.5493 43.79,20.8303 41.306,18.3473 C38.822,15.8633 36.103,13.7593 33.281,12.1073 C37.994,11.0683 42.292,11.8093 45.068,14.5853 M51.127,35.2873 C50.612,32.9373 49.741,30.5663 48.564,28.2433 C50.275,22.3873 49.516,16.9573 46.105,13.5473 C43.068,10.5093 38.412,9.4913 32.989,10.6763 C32.462,10.7913 31.934,10.9323 31.404,11.0863 C29.083,9.9113 26.714,9.0403 24.366,8.5263 C18.372,7.2163 13.223,8.3403 9.869,11.6953 C6.514,15.0503 5.389,20.1993 6.7,26.1933 C7.214,28.5423 8.086,30.9143 9.263,33.2373 C7.52,39.1743 8.348,44.5593 11.722,47.9323 C13.933,50.1443 17.003,51.2863 20.601,51.2863 C21.945,51.2863 23.363,51.1253 24.837,50.8033 C25.364,50.6883 25.892,50.5473 26.421,50.3933 C28.743,51.5683 31.112,52.4393 33.46,52.9533 C35.092,53.3093 36.662,53.4863 38.149,53.4863 C42.125,53.4863 45.517,52.2263 47.958,49.7853 C51.313,46.4303 52.438,41.2813 51.127,35.2873" id="Fill-1" fill="#333333"></path>
                        <path d="M33.9078,10.5535 C33.9078,11.8125 32.8868,12.8325 31.6288,12.8325 C30.3698,12.8325 29.3488,11.8125 29.3488,10.5535 C29.3488,9.2945 30.3698,8.2745 31.6288,8.2745 C32.8868,8.2745 33.9078,9.2945 33.9078,10.5535" id="Fill-3" fill="#D3D4D6"></path>
                        <path d="M33.9078,10.5535 C33.9078,11.8125 32.8868,12.8325 31.6288,12.8325 C30.3698,12.8325 29.3488,11.8125 29.3488,10.5535 C29.3488,9.2945 30.3698,8.2745 31.6288,8.2745 C32.8868,8.2745 33.9078,9.2945 33.9078,10.5535 Z" id="Stroke-5" stroke="#000000" stroke-width="1.077" stroke-linecap="round" stroke-linejoin="round"></path>
                        <polygon id="Fill-7" fill="#231F20" points="44.2921 22.9773 44.0911 18.0203 40.0641 21.1843"></polygon>
                        <path d="M36.4371,57.8299 C51.8931,60.7669 64.2571,51.3389 53.7481,32.1729" id="Stroke-9" stroke="#FFFFFF" stroke-width="0.927" stroke-dasharray="2.563,2.563,2.563,2.563,2.563,2.563"></path>
                        <path d="M22.2501,2.6873 C16.9621,-0.2847 7.9461,1.7773 3.9791,5.7433 C0.0131,9.7093 -0.1869,16.4873 1.3631,23.5753" id="Stroke-11" stroke="#FFFFFF" stroke-width="0.927" stroke-dasharray="2.563,2.563,2.563,2.563,2.563,2.563"></path>
                        <polygon id="Fill-13" fill="#FFFFFF" points="25.3087 4.3523 22.9287 0.0003 20.7247 4.6233"></polygon>
                        <path d="M24.523,37.6805 L24.523,35.5595 C21.801,33.8815 20.121,30.8875 20.121,27.6805 C20.121,22.5705 24.278,18.4125 29.388,18.4125 C34.498,18.4125 38.655,22.5705 38.655,27.6805 C38.655,30.8875 36.975,33.8815 34.253,35.5595 L34.253,37.6805 L24.523,37.6805 Z" id="Fill-15" fill="#FFFFFF"></path>
                        <path d="M29.3883,17.9495 C24.0233,17.9495 19.6583,22.3145 19.6583,27.6795 C19.6583,30.9595 21.3313,34.0285 24.0593,35.8145 L24.0593,37.2165 L24.0593,38.1435 L24.9873,38.1435 L33.7893,38.1435 L34.7173,38.1435 L34.7173,37.2165 L34.7173,35.8145 C37.4453,34.0285 39.1183,30.9595 39.1183,27.6795 C39.1183,22.3145 34.7533,17.9495 29.3883,17.9495 M29.3883,18.8765 C34.2423,18.8765 38.1913,22.8255 38.1913,27.6795 C38.1913,30.8455 36.5163,33.7235 33.7893,35.2965 L33.7893,37.2165 L24.9873,37.2165 L24.9873,35.2965 C22.2603,33.7235 20.5853,30.8445 20.5853,27.6795 C20.5853,22.8255 24.5343,18.8765 29.3883,18.8765" id="Fill-17" fill="#231F20"></path>
                        <path d="M32.6895,35.7342 L30.1215,35.7342 L30.1215,30.4952 C31.3845,30.1672 32.3225,29.0282 32.3225,27.6652 C32.3225,26.0462 31.0065,24.7302 29.3885,24.7302 C27.7705,24.7302 26.4535,26.0462 26.4535,27.6652 C26.4535,29.0282 27.3925,30.1672 28.6545,30.4952 L28.6545,35.7342 L26.0865,35.7342 C25.0755,35.7342 24.2525,36.5562 24.2525,37.5682 C24.2525,37.9832 24.3965,38.3612 24.6285,38.6692 C24.3965,38.9762 24.2525,39.3542 24.2525,39.7692 C24.2525,40.7802 25.0755,41.6032 26.0865,41.6032 L32.6895,41.6032 C33.7015,41.6032 34.5235,40.7802 34.5235,39.7692 C34.5235,39.3542 34.3805,38.9762 34.1475,38.6692 C34.3805,38.3612 34.5235,37.9832 34.5235,37.5682 C34.5235,36.5562 33.7015,35.7342 32.6895,35.7342" id="Fill-19" fill="#333333"></path>
                        <path d="M27.3302,27.6648 C27.3302,26.5298 28.2532,25.6068 29.3882,25.6068 C30.5232,25.6068 31.4462,26.5298 31.4462,27.6648 C31.4462,28.7998 30.5232,29.7228 29.3882,29.7228 C28.2532,29.7228 27.3302,28.7998 27.3302,27.6648" id="Fill-21" fill="#FBB348"></path>
                    </g>
                </g>
            </g>
        </g>
    </g>
</svg>