<?xml version="1.0" encoding="UTF-8"?>
<svg xmlns="http://www.w3.org/2000/svg" width="24" height="24" viewBox="0 0 24 24" fill="none">
  <g clip-path="url(#clip0_1186_3410)">
    <path d="M12 -0.00976562C9.62663 -0.00976562 7.30655 0.694022 5.33316 2.0126C3.35977 3.33118 1.8217 5.20532 0.913451 7.39803C0.00519938 9.59075 -0.232441 12.0035 0.230582 14.3313C0.693605 16.6591 1.83649 18.7973 3.51472 20.4755C5.19295 22.1537 7.33115 23.2966 9.65892 23.7597C11.9867 24.2227 14.3995 23.985 16.5922 23.0768C18.7849 22.1685 20.6591 20.6305 21.9776 18.6571C23.2962 16.6837 24 14.3636 24 11.9902C24 8.80764 22.7357 5.75539 20.4853 3.50495C18.2348 1.25452 15.1826 -0.00976562 12 -0.00976562ZM8.94632 17.5844C8.94632 17.6921 8.90357 17.7953 8.82747 17.8714C8.75137 17.9475 8.64815 17.9902 8.54053 17.9902H6.81632C6.76297 17.9904 6.71011 17.9801 6.66079 17.9598C6.61146 17.9395 6.56664 17.9096 6.52892 17.8718C6.4912 17.8341 6.46131 17.7893 6.441 17.74C6.42068 17.6907 6.41032 17.6378 6.41053 17.5844V10.3544C6.41053 10.2468 6.45329 10.1436 6.52939 10.0675C6.60549 9.99141 6.7087 9.94866 6.81632 9.94866H8.54053C8.64815 9.94866 8.75137 9.99141 8.82747 10.0675C8.90357 10.1436 8.94632 10.2468 8.94632 10.3544V17.5844ZM7.68316 9.26813C7.35881 9.26938 7.04138 9.17436 6.77106 8.9951C6.50074 8.81584 6.28969 8.56041 6.16463 8.26113C6.03957 7.96186 6.00612 7.63221 6.06851 7.31391C6.13091 6.99561 6.28635 6.70299 6.51515 6.47308C6.74395 6.24318 7.03582 6.08633 7.35381 6.0224C7.6718 5.95847 8.00161 5.99033 8.30149 6.11395C8.60136 6.23756 8.85781 6.44738 9.03837 6.71683C9.21893 6.98628 9.31548 7.30325 9.31579 7.6276C9.316 7.84283 9.27382 8.056 9.19164 8.25492C9.10947 8.45385 8.98892 8.63464 8.83688 8.78698C8.68483 8.93931 8.50427 9.06021 8.3055 9.14277C8.10674 9.22532 7.89366 9.26792 7.67843 9.26813H7.68316ZM17.9653 17.6176C17.9653 17.7164 17.926 17.8112 17.8561 17.8811C17.7862 17.951 17.6915 17.9902 17.5926 17.9902H15.7374C15.6385 17.9902 15.5438 17.951 15.4739 17.8811C15.404 17.8112 15.3647 17.7164 15.3647 17.6176V14.226C15.3647 13.7192 15.5116 12.0155 14.0416 12.0155C12.9016 12.0155 12.6695 13.1871 12.6205 13.7129V17.6255C12.6185 17.7224 12.5787 17.8147 12.5098 17.8828C12.4408 17.9509 12.348 17.9894 12.2511 17.9902H10.4605C10.4115 17.9904 10.363 17.9809 10.3177 17.9623C10.2724 17.9436 10.2312 17.9162 10.1966 17.8816C10.1619 17.8469 10.1345 17.8058 10.1158 17.7605C10.0972 17.7151 10.0877 17.6666 10.0879 17.6176V10.3229C10.0877 10.2738 10.0972 10.2252 10.1158 10.1798C10.1344 10.1344 10.1619 10.0931 10.1965 10.0584C10.2311 10.0236 10.2723 9.996 10.3176 9.97717C10.3629 9.95835 10.4115 9.94866 10.4605 9.94866H12.2511C12.3007 9.94782 12.3501 9.95688 12.3962 9.97531C12.4423 9.99374 12.4843 10.0212 12.5198 10.056C12.5552 10.0908 12.5833 10.1324 12.6025 10.1782C12.6217 10.224 12.6316 10.2732 12.6316 10.3229V10.9544C13.0547 10.3229 13.6832 9.82866 15.0205 9.82866C17.9858 9.82866 17.9684 12.5981 17.9684 14.1187L17.9653 17.6176Z" fill="black"></path>
  </g>
  <defs>
    <clipPath id="clip0_1186_3410">
      <rect width="24" height="24" fill="white" transform="translate(0 -0.00976562)"></rect>
    </clipPath>
  </defs>
</svg>
