<?xml version="1.0" encoding="UTF-8"?>
<svg xmlns="http://www.w3.org/2000/svg" width="24" height="24" viewBox="0 0 24 24" fill="none">
  <path d="M12 23.9902C18.624 23.9902 24 18.6142 24 11.9902C24 5.36621 18.624 -0.00976562 12 -0.00976562C5.37598 -0.00976562 0 5.36621 0 11.9902C0 18.6142 5.37598 23.9902 12 23.9902ZM6.42402 6.30224H17.576C17.72 6.30224 17.864 6.32622 18 6.35825L12.152 11.4302C12.064 11.5102 11.936 11.5102 11.864 11.4382L6 6.35825C6.13598 6.32622 6.27998 6.30224 6.42402 6.30224ZM4.8 7.93423C4.8 7.69423 4.848 7.47822 4.93598 7.27822L10.952 12.5022C11.256 12.7502 11.624 12.8782 11.992 12.8782C12.368 12.8782 12.744 12.7502 13.056 12.4942L19.064 7.27822C19.152 7.47823 19.2 7.69423 19.2 7.93423V16.0462C19.2 16.9502 18.472 17.6782 17.576 17.6782H6.42402C5.52798 17.6782 4.8 16.9502 4.8 16.0462V7.93423Z" fill="black"></path>
</svg>
