<?xml version="1.0" encoding="UTF-8"?>
<svg width="13px" height="13px" viewBox="0 0 13 13" version="1.1" xmlns="http://www.w3.org/2000/svg" xmlns:xlink="http://www.w3.org/1999/xlink">
    <title>Combined shape 275 Copy</title>
    <g id="Page-1" stroke="none" stroke-width="1" fill="none" fill-rule="evenodd">
        <g id="ui-kit" transform="translate(-470.000000, -390.000000)" fill="#0073B0">
            <path d="M480.447077,394.26968 C481.847418,394.52648 482.798976,395.451744 482.921019,397.082912 C483.066522,399.033312 482.955393,401.004112 482.955393,402.998624 L480.22929,402.998624 L480.22929,402.390944 C480.225618,400.943344 480.248993,399.494896 480.208771,398.048944 C480.177338,396.913504 479.496182,396.334544 478.516132,396.5156 C477.823246,396.643792 477.319655,397.27312 477.312328,398.074752 C477.29849,399.483664 477.307942,400.892976 477.307211,402.30104 L477.307211,402.981568 L474.556917,402.981568 L474.556917,394.449904 L477.272837,394.449904 C477.294087,394.786208 477.31379,395.098368 477.341568,395.52624 C478.171151,394.404528 479.211126,394.044096 480.447077,394.26968 Z M472.754611,394.23888 L472.754611,402.786768 L470.029239,402.786768 L470.029239,394.23888 L472.754611,394.23888 Z M471.54943,389.9976 C472.463044,389.990944 473.120094,390.6032 473.131739,391.470608 C473.1442,392.323856 472.483478,392.948192 471.563268,392.955264 C470.632144,392.96192 470.005048,392.372144 469.999268,391.486832 C469.994882,390.601952 470.618306,390.003856 471.54943,389.9976 Z" id="Combined-shape-275-Copy"></path>
        </g>
    </g>
</svg>