<?xml version="1.0" encoding="UTF-8"?>
<svg width="7px" height="15px" viewBox="0 0 7 15" version="1.1" xmlns="http://www.w3.org/2000/svg" xmlns:xlink="http://www.w3.org/1999/xlink">
    <title>facebook copy</title>
    <g id="Page-1" stroke="none" stroke-width="1" fill="none" fill-rule="evenodd">
        <g id="ui-kit" transform="translate(-400.000000, -388.000000)" fill="#1877F2">
            <path d="M401.50709,402.998938 L401.50709,396.045581 L399.99854,396.045581 L399.99854,393.593229 L401.45156,393.593229 C401.48592,392.844022 401.47639,392.159347 401.55529,391.484651 C401.73734,389.954634 402.59535,389.123028 404.13752,389.021895 C405.05106,388.96112 405.97126,389.010233 406.93381,389.010233 L406.93381,391.391423 C406.50701,391.391423 406.05822,391.381019 405.60951,391.393922 C404.84718,391.414322 404.64835,391.613273 404.62718,392.367869 C404.61692,392.740815 404.62498,393.114152 404.62498,393.579493 L406.9974,393.579493 C406.89725,394.434406 406.80883,395.191926 406.71455,396.000633 L404.64111,396.000633 L404.64111,402.998938 L401.50709,402.998938 Z" id="facebook-copy"></path>
        </g>
    </g>
</svg>