<svg xmlns="http://www.w3.org/2000/svg" width="168" height="47" viewBox="0 0 168 47">
  <g fill="none" fill-rule="evenodd">
    <rect width="168" height="46.275"/>
    <g fill="#FFF" transform="translate(0 3.018)">
      <path d="M49.2344885 16.8143713L41.0423138 16.8143713C40.7698319 16.8143713 40.5517241 17.0286108 40.5517241 17.297012L40.5517241 35.4634401C40.5517241 35.7288323 40.7698319 35.9466826 41.0423138 35.9466826L49.2619811 35.9466826C55.7184583 35.9466826 59.8930522 32.1878623 59.8930522 26.365482 59.8930522 20.5617575 55.7080722 16.8143713 49.2344885 16.8143713M49.2344885 30.900018L46.4369668 30.900018 46.4369668 21.8616377 49.2619811 21.8616377C52.1774153 21.8616377 53.9222771 23.5454641 53.9222771 26.365482 53.9222771 28.6192096 52.3118235 30.900018 49.2344885 30.900018M97.5440039 21.7480787C95.2835037 21.7480787 93.4463891 22.9727344 92.622834 24.1865578 92.0241069 22.5677254 90.6586426 21.7480787 88.5765387 21.7480787 86.2708285 21.7480787 84.5253558 22.8951027 83.9156317 23.6678093L83.9156317 22.5737434C83.9156317 22.305944 83.6969131 22.0905009 83.426264 22.0905009L79.1649157 22.0905009C78.8942667 22.0905009 78.6743261 22.305944 78.6743261 22.5737434L78.6743261 35.4642225C78.6743261 35.7284111 78.8942667 35.9468632 79.1649157 35.9468632L83.426264 35.9468632C83.6969131 35.9468632 83.9156317 35.7284111 83.9156317 35.4642225L83.9156317 27.3947344C84.2266032 27.0426835 84.8662637 26.3054829 86.0423347 26.3054829 87.0748334 26.3054829 87.644846 26.8603392 87.644846 27.8557105L87.644846 35.4642225C87.644846 35.7284111 87.8647866 35.9468632 88.1348247 35.9468632L92.395562 35.9468632C92.6668221 35.9468632 92.8879845 35.7284111 92.8879845 35.4642225L92.8879845 27.3971416C93.1946794 27.0456925 93.8367836 26.3054829 95.0403472 26.3054829 96.0587942 26.3054829 96.6428586 26.8729769 96.6428586 27.8557105L96.6428586 35.4642225C96.6428586 35.7284111 96.8615772 35.9468632 97.1322263 35.9468632L101.396629 35.9468632C101.665446 35.9468632 101.884775 35.7284111 101.884775 35.4642225L101.884775 25.9064919C101.884775 23.2230817 100.34458 21.7480787 97.5440039 21.7480787M109.440161 22.0906814L105.177591 22.0906814C104.905109 22.0906814 104.687612 22.3079299 104.687612 22.5733222L104.687612 35.4638012C104.687612 35.7285916 104.905109 35.9464419 105.177591 35.9464419L109.440161 35.9464419C109.709588 35.9464419 109.931972 35.7285916 109.931972 35.4638012L109.931972 22.5733222C109.931972 22.3079299 109.709588 22.0906814 109.440161 22.0906814M122.890503 21.7480787C120.176681 21.7480787 118.696359 22.9492644 118.060975 23.6678093L118.060975 22.5737434C118.060975 22.305944 117.842257 22.0905009 117.570386 22.0905009L113.309037 22.0905009C113.036556 22.0905009 112.81967 22.305944 112.81967 22.5737434L112.81967 35.4642225C112.81967 35.7284111 113.036556 35.9468632 113.309037 35.9468632L117.570386 35.9468632C117.842257 35.9468632 118.060975 35.7284111 118.060975 35.4642225L118.060975 27.3971416C118.399439 27.0186117 119.034823 26.3054829 120.300092 26.3054829 121.655782 26.3054829 122.340041 26.9740787 122.340041 28.2847913L122.340041 35.4642225C122.340041 35.7284111 122.560593 35.9468632 122.83002 35.9468632L127.090757 35.9468632C127.363239 35.9468632 127.581958 35.7284111 127.581958 35.4642225L127.581958 26.1092973C127.581958 23.378947 125.832208 21.7480787 122.890503 21.7480787M69.0097104 21.685191C64.909041 21.685191 61.5848838 24.9583617 61.5848838 28.9946102 61.5848838 33.0368766 64.909041 36.3100473 69.0097104 36.3100473 73.1103799 36.3100473 76.4327042 33.0368766 76.4327042 28.9946102 76.4327042 24.9583617 73.1103799 21.685191 69.0097104 21.685191M69.0097104 31.3915653C67.611866 31.3915653 66.4773393 30.2734275 66.4773393 28.8904994 66.4773393 27.5129874 67.611866 26.3984605 69.0097104 26.3984605 70.4081658 26.3984605 71.5426925 27.5129874 71.5426925 28.8904994 71.5426925 30.2734275 70.4081658 31.3915653 69.0097104 31.3915653"/>
      <path d="M7.47999501,0.41710509 C3.38238027,0.41710509 0.0563903147,3.68967395 0.0563903147,7.72893144 C0.0563903147,11.7717997 3.38238027,15.0449704 7.47999501,15.0449704 C11.5806645,15.0449704 14.9060435,11.7717997 14.9060435,7.72893144 C14.9060435,3.68967395 11.5806645,0.41710509 7.47999501,0.41710509 M7.47999501,10.1234793 C6.08153965,10.1234793 4.94701295,9.00233263 4.94701295,7.62181168 C4.94701295,6.24730868 6.08153965,5.12977275 7.47999501,5.12977275 C8.88150511,5.12977275 10.0129771,6.24730868 10.0129771,7.62181168 C10.0129771,9.00233263 8.88150511,10.1234793 7.47999501,10.1234793" transform="translate(129.75 21.29)"/>
      <path d="M153.864976 26.2133479C153.850313 25.6976084 154.533962 25.468324 155.384399 25.468324 157.082829 25.468324 158.047512 25.9449467 159.127665 26.6454377 159.242523 26.7230695 159.378764 26.7471413 159.51195 26.7140425 159.642081 26.6839527 159.75755 26.5978958 159.823532 26.4811473L161.261088 24.0161892C161.394275 23.7899138 161.316073 23.5034587 161.088802 23.3662491 159.905399 22.6711743 158.171534 21.7744976 155.166291 21.7744976 150.829797 21.7744976 148.505758 23.7838958 148.892487 26.6755275 149.576746 31.7576982 157.596634 30.0167012 157.472001 31.7486713 157.44512 32.1512731 156.733368 32.4491623 155.505977 32.4491623 153.916296 32.4491623 152.112783 31.6656234 150.975813 30.9735575 150.865842 30.9055545 150.726547 30.8844916 150.59947 30.9169886 150.469338 30.9494856 150.361201 31.0307281 150.293997 31.1462731L148.632835 33.8742162C148.505758 34.0980844 148.568685 34.3725036 148.784349 34.5157311 150.381362 35.5766982 152.957721 36.2922341 155.193784 36.2922341 159.535777 36.2922341 162.038823 34.4525425 162.038823 31.4333299 162.041877 25.8618988 153.898578 27.5908599 153.864976 26.2133479M165.023721 26.359103C163.740124 26.359103 162.693573 25.3306329 162.693573 24.0668605 162.693573 22.7904503 163.740124 21.774618 165.023721 21.774618 166.328091 21.774618 167.353258 22.7904503 167.353258 24.0668605 167.353258 25.3306329 166.328091 26.359103 165.023721 26.359103L165.023721 26.359103zM165.023721 22.1200491C163.92463 22.1200491 163.050366 22.9697856 163.050366 24.0668605 163.050366 25.1374563 163.92463 26.0136719 165.023721 26.0136719 166.119148 26.0136719 166.996466 25.1374563 166.996466 24.0668605 166.996466 22.9697856 166.119148 22.1200491 165.023721 22.1200491L165.023721 22.1200491zM165.66216 25.3878036L164.962627 24.3497048 164.508694 24.3497048 164.508694 25.3878036 164.136628 25.3878036 164.136628 22.7585551 165.225944 22.7585551C165.671324 22.7585551 166.0886 23.0708874 166.0886 23.5541299 166.0886 24.1408814 165.559521 24.3358635 165.408006 24.3358635L166.119148 25.3878036 165.66216 25.3878036zM165.225944 23.0835251L164.508694 23.0835251 164.508694 24.0133006 165.225944 24.0133006C165.452605 24.0133006 165.704315 23.8255401 165.704315 23.5541299 165.704315 23.2622587 165.452605 23.0835251 165.225944 23.0835251L165.225944 23.0835251zM24.4959206-2.56446148e-11C25.0240724-2.56446148e-11 25.5256236.177001747 25.9256688.50184328L26.0707814.630531888 36.0385602 10.27399C36.8653475 11.0738761 36.9047183 12.3520837 36.1566727 13.1975242L36.0385602 13.3209807 13.7674388 34.8667227C13.3467392 35.2729882 12.7872627 35.497006 12.1928351 35.497006 11.6635411 35.497006 11.1628783 35.3200042 10.7632251 34.9953373L10.6182313 34.8667227.651480416 25.2245078C-.175796303 24.4243849-.215190432 23.1463915.533298028 22.299898L.651480416 22.1762739 22.9213169.630531888C23.3412455.224017836 23.901236-2.56446148e-11 24.4959206-2.56446148e-11zM23.3319411 1.29334714L23.2199657 1.39155241 12.3656393 11.8905115 12.36479 11.8904047 1.44968473 22.4509961 1.3474908 22.5602162C.902379087 23.0876753.902371667 23.8525776 1.34737157 24.3815416L1.44954 24.4911072 11.3875746 34.1063625 11.4968954 34.2023321C11.7615145 34.4123671 12.0903568 34.5244683 12.4301354 34.5244683 12.7693415 34.5244683 13.0980915 34.4123023 13.3627673 34.2021825L13.4721206 34.1061755 24.3997484 23.5344774 24.3976393 23.5315115 35.2406178 13.0431654 35.3426495 12.9338962C35.787055 12.4062585 35.7870704 11.6418592 35.3426425 11.1128164L35.2406052 11.0032245 25.3036425 1.39129598 25.1916594 1.29313591C24.6512279.865594899 23.8723391.865608046 23.3319411 1.29334714zM12.3645988 12.5899401L23.6759281 23.5340838 13.1221846 33.7448616 13.0246287 33.8276751C12.8541098 33.9540294 12.6459588 34.0214743 12.4301354 34.0214743 12.2137356 34.0214743 12.0054747 33.9540678 11.8350188 33.8278074L11.7375192 33.745057 1.79943627 24.1297548 1.71912206 24.0416919C1.4491764 23.7058014 1.44916477 23.2351868 1.71896995 22.9004078L1.79924276 22.8126756 12.3645988 12.5899401zM16.6424825 20.7586035C15.9070259 20.7586035 15.1695192 21.029843 14.6070358 21.5740573 14.0453212 22.1182717 13.7642076 22.8318248 13.7642076 23.5441382 13.7642076 24.2552119 14.0453212 24.9690129 14.6078046 25.5114917 15.1695192 26.0534747 15.9070259 26.3281852 16.6424825 26.3281852 17.3794767 26.3257059 18.1169834 26.0534747 18.6779292 25.5114917 19.2422064 24.9690129 19.52332 24.2552119 19.52332 23.5441382 19.52332 22.8293454 19.2422064 22.1182717 18.6779292 21.5740573 18.1169834 21.029843 17.3794767 20.7586035 16.6424825 20.7586035zM8.19421269 20.6467855C7.45721851 20.6467855 6.72048059 20.9185207 6.15825346 21.4609996 5.59705136 22.0067016 5.31645031 22.7200067 5.31645031 23.4323201 5.31645031 24.1448814 5.59577008 24.8581866 6.15825346 25.4011613 6.72048059 25.9426484 7.45721851 26.2138878 8.19421269 26.2138878 8.92966933 26.2138878 9.66743227 25.9416566 10.2309407 25.4011613 10.7926553 24.8594262 11.0719758 24.1433938 11.0719758 23.4310804 11.0724876 22.7200067 10.7926553 22.0067016 10.2309407 21.4609996 9.66871356 20.9185207 8.92966933 20.6467855 8.19421269 20.6467855zM24.8617357 1.67392251L24.9537176 1.75262055 34.8905838 11.3644555 34.9707859 11.4525339C35.2403549 11.7884687 35.2403723 12.2590005 34.9710135 12.5938965L34.8908734 12.6816659 24.3207665 22.9063473 13.0134611 11.9642156 23.5699428 1.75282635 23.6619266 1.67408428C24.0132598 1.40942275 24.5104086 1.40941039 24.8617357 1.67392251zM24.2922961 9.20959993C23.5549533 9.20959993 22.8188915 9.48351114 22.2567893 10.026128 21.6951995 10.5675055 21.4120988 11.2821534 21.4120988 11.9945705 21.4120988 12.7067396 21.6951995 13.4201482 22.2567893 13.9640044 22.8188915 14.5078607 23.5575153 14.7780537 24.2910151 14.7780537 25.0260522 14.7780537 25.7644198 14.5078607 26.3267782 13.9640044 26.8875994 13.4201482 27.1719811 12.7055002 27.1719811 11.9945705 27.1719811 11.283145 26.8875994 10.5675055 26.3267782 10.026128 25.7644198 9.48078442 25.0260522 9.20959993 24.2922961 9.20959993zM105.243786 14.9461078C103.647223 14.9461078 102.344828 16.2039101 102.344828 17.7476295 102.344828 19.2960075 103.647223 20.5508982 105.243786 20.5508982 106.837942 20.5508982 108.137931 19.2960075 108.137931 17.7476295 108.137931 16.2039101 106.837942 14.9461078 105.243786 14.9461078M146.681029 17.1883848C146.677464 17.1789576 146.683999 17.1712979 146.681029 17.1595138 146.681029 17.1530325 146.674493 17.1477297 146.671522 17.1388916 146.668551 17.1324104 146.668551 17.1271075 146.668551 17.1212155L146.666175 17.1241615C146.345334 15.7147838 144.800547 14.6901567 143.27299 15.0024352 141.73058 15.3206058 140.71815 16.7417676 141.018195 18.1747136 141.265361 19.3543015 142.331264 20.1367654 143.558182 20.2121836 143.499361 20.71124 143.057314 21.1637493 142.689536 21.3711493 142.448906 21.505488 142.59566 21.7617921 142.59566 21.7617921L142.909965 22.2260854C143.002058 22.3828139 143.143466 22.4623565 143.307451 22.3951872 146.447528 21.1172021 146.995333 18.4728512 146.681029 17.1883848"/>
    </g>
  </g>
</svg>
