<svg xmlns="http://www.w3.org/2000/svg" width="16" height="16" viewBox="0 0 16 16">
  <defs>
    <radialGradient id="hover-a" cx="42.137%" cy="107.742%" r="119.669%" fx="42.137%" fy="107.742%">
      <stop offset="0%" stop-color="#FFD87A"/>
      <stop offset="14.26%" stop-color="#FCCE78"/>
      <stop offset="22.63%" stop-color="#F5B471"/>
      <stop offset="33.78%" stop-color="#EB8D65"/>
      <stop offset="44.9%" stop-color="#E36058"/>
      <stop offset="67.86%" stop-color="#CD3694"/>
      <stop offset="100%" stop-color="#6668B0"/>
    </radialGradient>
  </defs>
  <path fill="url(#hover-a)" d="M1222.03144,733.105646 C1224.71824,733.105646 1226.89409,735.28149 1226.88983,737.972554 L1226.88983,737.972554 L1226.88983,744.031705 C1226.88983,746.718511 1224.71398,748.894355 1222.02718,748.894355 L1222.02718,748.894355 L1215.96803,748.894355 C1213.27696,748.894355 1211.10112,746.718511 1211.10112,744.031705 L1211.10112,744.031705 L1211.10112,737.972554 C1211.10112,735.285748 1213.28122,733.105646 1215.96803,733.105646 L1215.96803,733.105646 Z M1221.44809,734.621499 L1216.55137,734.621499 C1214.37979,734.621499 1212.62123,736.380058 1212.62123,738.551644 L1212.62123,738.551644 L1212.62123,743.448357 C1212.62123,745.619944 1214.37979,747.378503 1216.55137,747.378503 L1216.55137,747.378503 L1221.44809,747.378503 C1223.61967,747.378503 1225.37823,745.619944 1225.37823,743.448357 L1225.37823,743.448357 L1225.37823,738.551644 C1225.37823,736.384316 1223.61967,734.621499 1221.44809,734.621499 L1221.44809,734.621499 Z M1219.21263,736.869729 C1221.5077,736.869729 1223.36845,738.73048 1223.37271,741.029807 C1223.37271,743.329133 1221.5077,745.189884 1219.21263,745.189884 C1216.91331,745.189884 1215.05255,743.324875 1215.05255,741.029807 C1215.05255,738.73048 1216.91331,736.869729 1219.21263,736.869729 Z M1219.21263,738.521838 C1217.82878,738.521838 1216.70892,739.641695 1216.70892,741.025549 C1216.70892,742.409403 1217.82878,743.52926 1219.21263,743.52926 C1220.59223,743.52926 1221.71208,742.409403 1221.71634,741.025549 C1221.71634,739.641695 1220.59223,738.521838 1219.21263,738.521838 Z M1223.08316,735.745614 C1223.66651,735.745614 1224.13915,736.218253 1224.13915,736.805859 C1224.13915,737.389206 1223.66651,737.861846 1223.08316,737.861846 C1222.49982,737.861846 1222.02718,737.389206 1222.02718,736.805859 C1222.02718,736.222511 1222.49982,735.745614 1223.08316,735.745614 Z" transform="translate(-1211 -733)"/>
</svg>
