<svg xmlns="http://www.w3.org/2000/svg" width="16" height="16" viewBox="0 0 16 16">
  <path d="M1195.93032,733.105646 C1198.61712,733.105646 1200.79297,735.28149 1200.78871,737.972554 L1200.78871,737.972554 L1200.78871,744.031705 C1200.78871,746.718511 1198.61286,748.894355 1195.92606,748.894355 L1195.92606,748.894355 L1189.86691,748.894355 C1187.17584,748.894355 1185,746.718511 1185,744.031705 L1185,744.031705 L1185,737.972554 C1185,735.285748 1187.1801,733.105646 1189.86691,733.105646 L1189.86691,733.105646 Z M1195.34697,734.621499 L1190.45026,734.621499 C1188.27867,734.621499 1186.52011,736.380058 1186.52011,738.551644 L1186.52011,738.551644 L1186.52011,743.448357 C1186.52011,745.619944 1188.27867,747.378503 1190.45026,747.378503 L1190.45026,747.378503 L1195.34697,747.378503 C1197.51856,747.378503 1199.27711,745.619944 1199.27711,743.448357 L1199.27711,743.448357 L1199.27711,738.551644 C1199.27711,736.384316 1197.51856,734.621499 1195.34697,734.621499 L1195.34697,734.621499 Z M1193.11151,736.869729 C1195.40658,736.869729 1197.26733,738.73048 1197.27159,741.029807 C1197.27159,743.329133 1195.40658,745.189884 1193.11151,745.189884 C1190.81219,745.189884 1188.95144,743.324875 1188.95144,741.029807 C1188.95144,738.73048 1190.81219,736.869729 1193.11151,736.869729 Z M1193.11151,738.521838 C1191.72766,738.521838 1190.6078,739.641695 1190.6078,741.025549 C1190.6078,742.409403 1191.72766,743.52926 1193.11151,743.52926 C1194.49111,743.52926 1195.61097,742.409403 1195.61522,741.025549 C1195.61522,739.641695 1194.49111,738.521838 1193.11151,738.521838 Z M1196.98205,735.745614 C1197.56539,735.745614 1198.03803,736.218253 1198.03803,736.805859 C1198.03803,737.389206 1197.56539,737.861846 1196.98205,737.861846 C1196.3987,737.861846 1195.92606,737.389206 1195.92606,736.805859 C1195.92606,736.222511 1196.3987,735.745614 1196.98205,735.745614 Z" transform="translate(-1185 -733)"/>
</svg>
