<?xml version="1.0" encoding="UTF-8"?>
<svg xmlns="http://www.w3.org/2000/svg" width="16" height="15" viewBox="0 0 16 15" fill="none">
  <path d="M4.33333 6.66683V13.3335C4.33333 13.5545 4.24554 13.7665 4.08926 13.9228C3.93298 14.079 3.72101 14.1668 3.5 14.1668H1.83333C1.61232 14.1668 1.40036 14.079 1.24408 13.9228C1.0878 13.7665 1 13.5545 1 13.3335V7.50016C1 7.27915 1.0878 7.06719 1.24408 6.91091C1.40036 6.75463 1.61232 6.66683 1.83333 6.66683H4.33333ZM4.33333 6.66683C5.21739 6.66683 6.06523 6.31564 6.69036 5.69052C7.31548 5.0654 7.66667 4.21755 7.66667 3.3335V2.50016C7.66667 2.05814 7.84226 1.63421 8.15482 1.32165C8.46738 1.00909 8.89131 0.833496 9.33333 0.833496C9.77536 0.833496 10.1993 1.00909 10.5118 1.32165C10.8244 1.63421 11 2.05814 11 2.50016V6.66683H13.5C13.942 6.66683 14.366 6.84242 14.6785 7.15498C14.9911 7.46755 15.1667 7.89147 15.1667 8.3335L14.3333 12.5002C14.2135 13.0114 13.9861 13.4504 13.6855 13.751C13.3849 14.0516 13.0274 14.1975 12.6667 14.1668H6.83333C6.17029 14.1668 5.53441 13.9034 5.06557 13.4346C4.59673 12.9658 4.33333 12.3299 4.33333 11.6668" stroke="black" stroke-width="1.25" stroke-linecap="round" stroke-linejoin="round"></path>
</svg>
